<svg width="183" height="67" viewBox="0 0 183 67" fill="none" xmlns="http://www.w3.org/2000/svg">
<path id="Rectangle 4" d="M2.26337 14.334C4.46449 5.91139 12.073 0.0357056 20.7785 0.0357056H160.593C168.704 0.0357056 176.012 4.93483 179.093 12.4381L181.651 18.6669C183.654 23.5441 182.334 29.155 178.367 32.6277C177.135 33.7063 176.13 35.0197 175.411 36.4911L165.983 55.7819C162.628 62.6466 155.655 67 148.014 67H34.1835C26.1852 67 18.956 62.2347 15.803 54.884L6.98117 34.3172C6.3385 32.8189 5.31109 31.5172 4.0031 30.544C0.979413 28.2942 -0.376184 24.4344 0.576737 20.788L2.26337 14.334Z" fill="#F9FCFA"/>
</svg>
